<svg xmlns="http://www.w3.org/2000/svg">



  <!-- Social and contact Icons -->
  <symbol id="social__linkedin" viewBox="0 0 50 50">
    <title>Linkedin icon</title>
    <path d="M7.7 18.1h7.6v22.8H7.7zM34 17.5c-4 0-5.8 2.2-6.8 3.8v0-3.2h-7.6c.1 2.1 0 22.8 0 22.8h7.6V28.2c0-.7.1-1.4.3-1.9.5-1.4 1.8-2.8 3.9-2.8 2.7 0 3.8 2.1 3.8 5.2v12.2h7.6V27.8c-.1-7-3.8-10.3-8.8-10.3zM11.6 7.1C9 7.1 7.3 8.8 7.3 11s1.7 3.9 4.2 3.9h.1c2.6 0 4.3-1.8 4.3-3.9-.1-2.2-1.7-3.9-4.3-3.9z"/>
  </symbol>
  <symbol id="social__twitter" viewBox="0 0 50 50">
    <title>Twitter icon</title>
    <path d="M41.7 14.7c-1.2.5-2.5.9-3.9 1.1 1.4-.8 2.5-2.2 3-3.8-1.3.8-2.8 1.4-4.3 1.7-1.2-1.3-3-2.2-5-2.2-3.8 0-6.8 3.1-6.8 6.8 0 .5.1 1.1.2 1.6-5.7-.3-10.7-3-14.1-7.1-.6 1-.9 2.2-.9 3.4 0 2.4 1.2 4.5 3 5.7-1.1 0-2.2-.3-3.1-.9v.1c0 3.3 2.4 6.1 5.5 6.7-.7.1-1.3.2-1.9.2-.4 0-.9 0-1.3-.1.9 2.7 3.4 4.7 6.4 4.7-2.3 1.8-5.3 2.9-8.5 2.9-.6 0-1.1 0-1.6-.1 3 1.9 6.6 3.1 10.5 3.1 12.6 0 19.4-10.4 19.4-19.4v-.9c1.3-1 2.4-2.2 3.4-3.5z"/>
  </symbol>

  <symbol id="social__facebook" viewBox="0 0 50 50">
    <title>Facebook icon</title>
    <path d="M34.3 11H15.7c-2.6 0-4.7 2.1-4.7 4.7v18.6c0 2.6 2.1 4.7 4.7 4.7H25V28.5h-3.5v-4.3H25V22c0-3.1 2.4-5.7 5.2-5.7h3.5v4.3h-3.5c-.4 0-.9.6-.9 1.3v2.2h4.4v4.3h-4.4V39h5c2.6 0 4.7-2.1 4.7-4.7V15.7c0-2.6-2.1-4.7-4.7-4.7z"/>
  </symbol>

  <symbol id="social__email" viewBox="0 0 50 50">
    <title>Eamil icon</title>
    <path d="M37.6 15H12.4L25 23.5"/>
    <path d="M25 26.5L9.5 16.1V35h31V16.1"/>
  </symbol>
  <symbol id="social__personal-email" viewBox="0 0 50 50">
    <title>Personal email icon</title>
    <path d="M22 25.1c5.2 0 9.4-4.2 9.4-9.4S27.2 6.4 22 6.4s-9.4 4.2-9.4 9.4 4.3 9.3 9.4 9.3zM32 33.8l9.2-7.5H22.8"/>
    <path d="M32.8 36.4c-.2.2-.5.3-.8.3-.3 0-.6-.1-.8-.3l-10.7-8.8v13.2h22.9V27.7l-10.6 8.7zM12.1 23.2c-4.7 3.3-7.6 8.7-7.6 14.4 0 .7.6 1.2 1.2 1.2H18V26.3c-1.6-.6-3.1-1.6-4.3-2.9-.4-.5-1.1-.6-1.6-.2z"/>
  </symbol>

  <symbol id="social__phone" viewBox="0 0 50 50">
    <title>Phone icon</title>
    <path d="M25.1 32c-1.3-1.1-2.5-2.3-3.7-3.4-1.2-1.2-2.3-2.4-3.4-3.7-.9-1-1.1-2.5-.6-3.8l-8-8c-1.9 1.9-1.6 6.6.4 10.8.9 1.8 2 3.4 3.2 5 1.2 1.5 2.5 3 3.8 4.3 1.4 1.4 2.8 2.7 4.3 3.8 1.5 1.2 3.2 2.3 5 3.2 4.2 2 8.9 2.3 10.8.4l-8-8c-1.2.5-2.7.3-3.8-.6zM19.1 18.8l1.2-1.2 1.3-1.3c.5-.5.5-1.2 0-1.7l-6.1-6.1c-.3-.5-1.1-.5-1.5 0l-3 3 7.8 7.8c0-.2.2-.3.3-.5zM41.5 34.4l-6.1-6.1c-.5-.5-1.2-.5-1.7 0l-1.3 1.3-1.2 1.2c-.2.2-.3.3-.5.4l7.8 7.8 3-3c.5-.4.5-1.2 0-1.6z"/>
  </symbol>

  <symbol id="social__chat" viewBox="0 0 50 50">
    <title>Chat icon</title>
    <path d="M25 15.4c-6.1 0-11 3.9-11 8.7 0 2.5 1.4 4.8 3.6 6.4l-1.3 4.3 8.7-2c6.1 0 11-3.9 11-8.7s-4.9-8.7-11-8.7z"/>
  </symbol>




</svg>
